<svg width="40" height="40" viewBox="0 0 40 40" fill="none" xmlns="http://www.w3.org/2000/svg">
<rect width="40" height="40" rx="10" fill="#3661ED"/>
<g clip-path="url(#clip0)">
<path d="M14.1667 17.4983H9.16807C8.70922 17.4983 8.33822 17.8693 8.33334 18.333V30.8295C8.33334 31.2932 8.70922 31.6642 9.16807 31.6642H14.1667C14.6304 31.6642 15.0014 31.2884 15.0014 30.8295V18.333C15.0014 17.8693 14.6255 17.4983 14.1667 17.4983Z" fill="white"/>
<path d="M22.4993 8.3364H17.5007C17.0419 8.3364 16.666 8.70739 16.666 9.16624V30.8301C16.666 31.2939 17.0419 31.6648 17.5007 31.6648H22.4993C22.9631 31.6648 23.334 31.289 23.334 30.8301V9.17112C23.334 8.70739 22.9582 8.3364 22.4993 8.3364Z" fill="white"/>
<path d="M30.832 14.999H25.8334C25.3696 14.999 24.9986 15.37 24.9986 15.8337V30.8295C24.9986 31.2932 25.3745 31.6642 25.8334 31.6642H30.832C31.2957 31.6642 31.6667 31.2884 31.6667 30.8295V15.8337C31.6667 15.37 31.2908 14.999 30.832 14.999Z" fill="white"/>
</g>
<defs>
<clipPath id="clip0">
<rect width="23.3333" height="23.3333" fill="white" transform="translate(8.33334 8.33334)"/>
</clipPath>
</defs>
</svg>
