<?xml version="1.0" standalone="no"?>
<!DOCTYPE svg PUBLIC "-//W3C//DTD SVG 20010904//EN"
 "http://www.w3.org/TR/2001/REC-SVG-20010904/DTD/svg10.dtd">
<svg version="1.0" xmlns="http://www.w3.org/2000/svg"
 width="700.000000pt" height="700.000000pt" viewBox="0 0 700.000000 700.000000"
 preserveAspectRatio="xMidYMid meet">
<metadata>
Created by potrace 1.14, written by Peter Selinger 2001-2017
</metadata>
<g transform="translate(0.000000,700.000000) scale(0.100000,-0.100000)"
fill="#000000" stroke="none">
<path d="M386 6985 c-186 -51 -337 -210 -375 -394 -14 -67 -14 -1443 -1 -1516
38 -198 225 -375 425 -402 22 -3 544 -6 1159 -7 1161 -1 1209 0 1301 40 147
65 254 189 295 346 18 69 19 110 17 808 -2 676 -4 739 -20 780 -72 184 -189
296 -354 341 -64 17 -138 18 -1233 17 -946 0 -1174 -2 -1214 -13z m2301 -424
c30 -1 48 -7 63 -23 20 -21 20 -31 20 -705 l0 -684 -24 -22 -24 -23 -1122 1
-1122 0 -19 24 c-10 13 -19 40 -20 60 -1 46 -1 1291 0 1312 2 27 26 50 59 57
25 5 1955 8 2189 3z"/>
<path d="M4180 6985 c-140 -35 -274 -142 -335 -272 -57 -119 -55 -43 -54
-1753 0 -1025 4 -1594 10 -1630 33 -180 177 -335 364 -392 70 -22 73 -22 1225
-22 1251 0 1208 -2 1326 56 128 61 229 185 264 323 19 75 20 118 20 1654 0
1091 -3 1595 -11 1635 -21 115 -85 223 -177 299 -60 50 -111 76 -192 98 -60
16 -147 18 -1225 17 -937 0 -1171 -2 -1215 -13z m2333 -429 c14 -3 32 -16 38
-28 9 -17 12 -387 11 -1553 0 -841 -1 -1540 -1 -1551 -1 -12 -10 -32 -20 -45
l-19 -24 -1114 -1 c-1168 -1 -1155 -1 -1172 41 -3 9 -6 716 -6 1571 0 1546 0
1554 20 1572 11 9 35 19 53 22 49 8 2179 4 2210 -4z"/>
<path d="M497 4084 c-1 -1 -24 -4 -52 -7 -108 -11 -241 -80 -313 -163 -51 -57
-102 -155 -119 -224 -10 -44 -12 -373 -10 -1670 l2 -1615 22 -60 c64 -168 202
-292 373 -332 43 -10 300 -13 1210 -12 1084 0 1159 1 1223 18 156 42 280 157
345 318 l27 68 3 1600 c2 1454 1 1607 -14 1675 -20 90 -42 136 -103 214 -69
88 -174 153 -286 176 -47 10 -311 13 -1183 14 -618 1 -1124 0 -1125 0z m2250
-457 c17 -17 18 -96 21 -1582 l2 -1564 -22 -21 c-12 -11 -31 -20 -42 -21 -120
-5 -2193 -2 -2214 3 -58 15 -55 -75 -55 1602 0 1415 1 1547 16 1569 9 14 27
27 39 29 13 2 521 3 1130 3 1050 0 1108 -1 1125 -18z"/>
<path d="M4260 2329 c-91 -11 -112 -17 -187 -54 -92 -45 -181 -133 -223 -218
-60 -124 -59 -103 -57 -912 2 -703 3 -743 21 -790 61 -158 171 -271 321 -327
l60 -23 1195 0 c1343 0 1244 -5 1370 76 78 50 133 108 176 186 63 113 64 120
63 914 0 664 -1 721 -18 776 -59 196 -215 337 -409 370 -49 8 -2242 10 -2312
2z m2252 -438 c10 0 25 -13 34 -27 16 -23 17 -83 17 -688 0 -364 -3 -674 -6
-689 -4 -14 -17 -32 -30 -38 -17 -10 -283 -13 -1117 -13 -602 -1 -1105 1
-1117 2 -12 2 -31 13 -42 23 -21 20 -21 24 -21 700 0 462 3 687 11 700 6 11
19 23 29 27 15 6 2169 9 2242 3z"/>
</g>
</svg>
